<svg xmlns="http://www.w3.org/2000/svg" viewBox="0 0 1073.6 703.1"><style>.st0{fill:#5046e5}.st1{fill:#c7d2fe}.st2{fill:#e0e7ff}.st3{fill:#a5b4fc}.st4{fill:#818cf8}.st5{fill:#4338ca}.st6{fill:#312e81}.st7{fill:#fff}.st8{fill:#3730a3}.st9{fill:#6366f1}</style><path class="st0" d="M1073.6 703.1H0V0h1073.6z"/><path class="st1" d="M1073.6 703.1H0V341.8h1073.6z"/><path class="st2" d="M1073.6 703.1H0V472.5h1073.6z"/><path class="st3" d="M1073.6 703.1H0V581.2h1073.6z"/><path class="st4" d="M1073.6 703.1H0V642.1h1073.6z"/><path class="st5" d="M1073.6 703.1H0v-20.3h1073.6z"/><path class="st6" d="M1073.6 703.1H0v-6.8h1073.6z"/><path class="st7" d="M879.5 598.1H683.7c-11.3 0-20.4-9.1-20.4-20.4V228.8c0-11.3 9.1-20.4 20.4-20.4h195.8c11.3 0 20.4 9.1 20.4 20.4v348.9c0 11.3-9.1 20.4-20.4 20.4z"/><path class="st8" d="M879.5 228.8H683.7c-11.3 0-20.4-9.1-20.4-20.4s9.1-20.4 20.4-20.4h195.8c11.3 0 20.4 9.1 20.4 20.4s-9.1 20.4-20.4 20.4z"/><path class="st9" d="M859.1 577.7H704.1c-11.3 0-20.4-9.1-20.4-20.4V249.2c0-11.3 9.1-20.4 20.4-20.4h155.1c11.3 0 20.4 9.1 20.4 20.4v308.1c-.1 11.3-9.2 20.4-20.5 20.4z"/><path class="st7" d="M838.7 557.3H724.5c-11.3 0-20.4-9.1-20.4-20.4V269.6c0-11.3 9.1-20.4 20.4-20.4h114.2c11.3 0 20.4 9.1 20.4 20.4v267.3c-.1 11.3-9.2 20.4-20.4 20.4z"/><path class="st9" d="M771.6 208.4h-17c-11.3 0-20.4-9.1-20.4-20.4s9.1-20.4 20.4-20.4h17c11.3 0 20.4 9.1 20.4 20.4s-9.1 20.4-20.4 20.4zM826.2 208.4h-17c-11.3 0-20.4-9.1-20.4-20.4s9.1-20.4 20.4-20.4h17c11.3 0 20.4 9.1 20.4 20.4s-9.1 20.4-20.4 20.4z"/><path class="st7" d="M818.3 496.2H745c-5.6 0-10.2-4.6-10.2-10.2V308.1c0-5.6 4.6-10.2 10.2-10.2h73.3c5.6 0 10.2 4.6 10.2 10.2v177.9c0 5.6-4.6 10.2-10.2 10.2z"/><path class="st9" d="M808.1 486H755.2c-5.6 0-10.2-4.6-10.2-10.2V318.3c0-5.6 4.6-10.2 10.2-10.2h52.9c5.6 0 10.2 4.6 10.2 10.2v157.5c-.1 5.6-4.6 10.2-10.2 10.2z"/><path class="st7" d="M781.6 451.8c-16.8 0-30.4-13.6-30.4-30.4s13.6-30.4 30.4-30.4 30.4 13.6 30.4 30.4-13.6 30.4-30.4 30.4zm0-40.4c-5.6 0-10.2 4.6-10.2 10.2s4.6 10.2 10.2 10.2 10.2-4.6 10.2-10.2-4.6-10.2-10.2-10.2z"/><path class="st9" d="M781.6 359.2h-27.2c-5.6 0-10.2-4.6-10.2-10.2v-20.4c0-5.6 4.6-10.2 10.2-10.2h27.2c5.6 0 10.2 4.6 10.2 10.2v20.4c-.1 5.6-4.6 10.2-10.2 10.2zM808.1 359.2h-10.2c-5.6 0-10.2-4.6-10.2-10.2v-20.4c0-5.6 4.6-10.2 10.2-10.2h10.2c5.6 0 10.2 4.6 10.2 10.2v20.4c-.1 5.6-4.6 10.2-10.2 10.2z"/><path class="st7" d="M411.6 598.1H215.8c-11.3 0-20.4-9.1-20.4-20.4V228.8c0-11.3 9.1-20.4 20.4-20.4h195.8c11.3 0 20.4 9.1 20.4 20.4v348.9c-.1 11.3-9.2 20.4-20.4 20.4z"/><path class="st8" d="M411.6 228.8H215.8c-11.3 0-20.4-9.1-20.4-20.4s9.1-20.4 20.4-20.4h195.8c11.3 0 20.4 9.1 20.4 20.4s-9.1 20.4-20.4 20.4z"/><path class="st9" d="M391.2 577.7H236.2c-11.3 0-20.4-9.1-20.4-20.4V249.2c0-11.3 9.1-20.4 20.4-20.4h155.1c11.3 0 20.4 9.1 20.4 20.4v308.1c-.1 11.3-9.2 20.4-20.5 20.4z"/><path class="st7" d="M370.8 557.3H256.6c-11.3 0-20.4-9.1-20.4-20.4V269.6c0-11.3 9.1-20.4 20.4-20.4h114.2c11.3 0 20.4 9.1 20.4 20.4v267.3c-.1 11.3-9.2 20.4-20.4 20.4z"/><path class="st9" d="M303.7 208.4h-17c-11.3 0-20.4-9.1-20.4-20.4s9.1-20.4 20.4-20.4h17c11.3 0 20.4 9.1 20.4 20.4s-9.1 20.4-20.4 20.4zM358.3 208.4h-17c-11.3 0-20.4-9.1-20.4-20.4s9.1-20.4 20.4-20.4h17c11.3 0 20.4 9.1 20.4 20.4s-9.1 20.4-20.4 20.4z"/><path class="st7" d="M350.4 496.2h-73.3c-5.6 0-10.2-4.6-10.2-10.2V308.1c0-5.6 4.6-10.2 10.2-10.2h73.3c5.6 0 10.2 4.6 10.2 10.2v177.9c-.1 5.6-4.6 10.2-10.2 10.2z"/><path class="st9" d="M340.2 486h-52.9c-5.6 0-10.2-4.6-10.2-10.2V318.3c0-5.6 4.6-10.2 10.2-10.2h52.9c5.6 0 10.2 4.6 10.2 10.2v157.5c-.1 5.6-4.6 10.2-10.2 10.2z"/><path class="st7" d="M313.7 451.8c-16.8 0-30.4-13.6-30.4-30.4s13.6-30.4 30.4-30.4 30.4 13.6 30.4 30.4-13.6 30.4-30.4 30.4zm0-40.4c-5.6 0-10.2 4.6-10.2 10.2s4.6 10.2 10.2 10.2 10.2-4.6 10.2-10.2-4.6-10.2-10.2-10.2z"/><path class="st9" d="M313.7 359.2h-27.2c-5.6 0-10.2-4.6-10.2-10.2v-20.4c0-5.6 4.6-10.2 10.2-10.2h27.2c5.6 0 10.2 4.6 10.2 10.2v20.4c-.1 5.6-4.6 10.2-10.2 10.2zM340.2 359.2h-10.2c-5.6 0-10.2-4.6-10.2-10.2v-20.4c0-5.6 4.6-10.2 10.2-10.2h10.2c5.6 0 10.2 4.6 10.2 10.2v20.4c-.1 5.6-4.6 10.2-10.2 10.2z"/><path class="st7" d="M645.6 598.1H450c-11.3 0-20.4-9.1-20.4-20.4V228.8c0-11.3 9.1-20.4 20.4-20.4h195.8c11.3 0 20.4 9.1 20.4 20.4v348.9c-.1 11.3-9.2 20.4-20.6 20.4z"/><path class="st8" d="M645.6 228.8H450c-11.3 0-20.4-9.1-20.4-20.4s9.1-20.4 20.4-20.4h195.8c11.3 0 20.4 9.1 20.4 20.4s-9.1 20.4-20.4 20.4z"/><path class="st9" d="M625.2 577.7H470.3c-11.3 0-20.4-9.1-20.4-20.4V249.2c0-11.3 9.1-20.4 20.4-20.4h155.1c11.3 0 20.4 9.1 20.4 20.4v308.1c-.1 11.3-9.2 20.4-20.6 20.4z"/><path class="st7" d="M604.8 557.3H490.7c-11.3 0-20.4-9.1-20.4-20.4V269.6c0-11.3 9.1-20.4 20.4-20.4h114.2c11.3 0 20.4 9.1 20.4 20.4v267.3c-.1 11.3-9.2 20.4-20.5 20.4z"/><path class="st9" d="M537.8 208.4h-17c-11.3 0-20.4-9.1-20.4-20.4s9.1-20.4 20.4-20.4h17c11.3 0 20.4 9.1 20.4 20.4s-9.1 20.4-20.4 20.4zM592.4 208.4h-17c-11.3 0-20.4-9.1-20.4-20.4s9.1-20.4 20.4-20.4h17c11.3 0 20.4 9.1 20.4 20.4s-9.1 20.4-20.4 20.4z"/><path class="st7" d="M584.5 496.2h-73.3c-5.6 0-10.2-4.6-10.2-10.2V308.1c0-5.6 4.6-10.2 10.2-10.2h73.3c5.6 0 10.2 4.6 10.2 10.2v177.9c-.1 5.6-4.6 10.2-10.2 10.2z"/><path class="st9" d="M574.3 486h-52.9c-5.6 0-10.2-4.6-10.2-10.2V318.3c0-5.6 4.6-10.2 10.2-10.2h52.9c5.6 0 10.2 4.6 10.2 10.2v157.5c-.1 5.6-4.6 10.2-10.2 10.2z"/><path class="st7" d="M547.8 451.8c-16.8 0-30.4-13.6-30.4-30.4s13.6-30.4 30.4-30.4 30.4 13.6 30.4 30.4-13.6 30.4-30.4 30.4zm0-40.4c-5.6 0-10.2 4.6-10.2 10.2s4.6 10.2 10.2 10.2 10.2-4.6 10.2-10.2-4.6-10.2-10.2-10.2z"/><path class="st9" d="M547.8 359.2h-27.2c-5.6 0-10.2-4.6-10.2-10.2v-20.4c0-5.6 4.6-10.2 10.2-10.2h27.2c5.6 0 10.2 4.6 10.2 10.2v20.4c-.1 5.6-4.6 10.2-10.2 10.2zM574.3 359.2h-10.2c-5.6 0-10.2-4.6-10.2-10.2v-20.4c0-5.6 4.6-10.2 10.2-10.2h10.2c5.6 0 10.2 4.6 10.2 10.2v20.4c-.1 5.6-4.6 10.2-10.2 10.2z"/><path class="st7" d="M547.8 147.1c-46.8 0-84.8-38-84.8-84.8S501 0 547.8 0s84.8 38 84.8 84.8-38 62.3-84.8 62.3zm0-149.2c-35.6 0-64.4 28.8-64.4 64.4s28.8 64.4 64.4 64.4 64.4-28.8 64.4-64.4-28.8-64.4-64.4-64.4z"/><path class="st9" d="M574.9 84.8 534.4 44.3c-4-4-10.4-4-14.4 0l-13.5 13.5c-4 4-4 10.4 0 14.4s10.4 4 14.4 0l6.3-6.3 33.3 33.3c4 4 10.4 4 14.4 0s4-10.4 0-14.4z"/></svg>